<svg width="29" height="26" viewBox="0 0 29 26" fill="none" xmlns="http://www.w3.org/2000/svg">
<path d="M28.3269 13.1505C28.3269 11.4793 26.9754 10.152 25.3284 10.152C24.5504 10.151 23.8021 10.4504 23.2395 10.9878C21.175 9.51294 18.3484 8.55464 15.2026 8.43175L16.5787 1.99243L21.0518 2.95074C21.1013 4.08137 22.0349 4.99088 23.1904 4.99088C24.37 4.99088 25.3284 4.03257 25.3284 2.85233C25.3284 1.67273 24.3701 0.714264 23.1904 0.714264C22.3548 0.714264 21.6171 1.20582 21.2731 1.91867L16.2841 0.861794C16.1366 0.836991 15.9891 0.861794 15.8907 0.93556C15.7678 1.00932 15.6942 1.13205 15.6698 1.27958L14.1456 8.45607C10.9506 8.55464 8.07493 9.51294 5.98599 11.0124C5.42334 10.475 4.67492 10.1757 3.89688 10.1768C2.22557 10.1768 0.898438 11.5283 0.898438 13.1753C0.898438 14.404 1.63561 15.4361 2.66816 15.9035C2.61802 16.204 2.59334 16.5082 2.59439 16.8128C2.59439 21.433 7.977 25.1937 14.6128 25.1937C21.2488 25.1937 26.6314 21.4578 26.6314 16.8128C26.6312 16.5082 26.6065 16.2041 26.5576 15.9035C27.5897 15.4361 28.3269 14.3792 28.3269 13.1505ZM7.7309 15.2885C7.7309 14.1089 8.68921 13.1505 9.86945 13.1505C11.0491 13.1505 12.0075 14.1088 12.0075 15.2885C12.0075 16.4683 11.0492 17.4271 9.86945 17.4271C8.68937 17.4512 7.7309 16.4683 7.7309 15.2885ZM19.7004 20.966C18.2257 22.4409 15.4238 22.5393 14.6128 22.5393C13.7772 22.5393 10.9754 22.4161 9.52495 20.966C9.30413 20.7449 9.30413 20.4007 9.52495 20.1796C9.74624 19.9588 10.0903 19.9588 10.3116 20.1796C11.2457 21.1137 13.2119 21.433 14.6128 21.433C16.0139 21.433 18.0044 21.1136 18.9137 20.1796C19.135 19.9588 19.4791 19.9588 19.7004 20.1796C19.8969 20.4007 19.8969 20.7449 19.7004 20.966ZM19.3069 17.4514C18.1271 17.4514 17.1688 16.4931 17.1688 15.3133C17.1688 14.1336 18.1271 13.1753 19.3069 13.1753C20.487 13.1753 21.4453 14.1336 21.4453 15.3133C21.4453 16.4681 20.487 17.4514 19.3069 17.4514Z" fill="white"/>
</svg>
