<svg width="30" height="25" viewBox="0 0 30 25" fill="none" xmlns="http://www.w3.org/2000/svg">
<path d="M14.5297 7.0987L14.5926 8.13676L13.5434 8.00965C9.72425 7.5224 6.38776 5.86997 3.55488 3.09474L2.16992 1.71772L1.81318 2.7346C1.05775 5.00139 1.54039 7.39529 3.11421 9.00534C3.95358 9.89511 3.76472 10.0222 2.31681 9.4926C1.81318 9.32312 1.37251 9.19601 1.33055 9.25956C1.18366 9.40786 1.68728 11.3357 2.08598 12.0983C2.63157 13.1576 3.74374 14.1957 4.96082 14.81L5.98905 15.2973L4.77197 15.3185C3.59685 15.3185 3.55488 15.3396 3.68078 15.7845C4.10047 17.1615 5.75823 18.6233 7.60484 19.2589L8.90587 19.7037L7.77272 20.3817C6.09398 21.3562 4.12145 21.907 2.14893 21.9493C1.20464 21.9705 0.428223 22.0553 0.428223 22.1188C0.428223 22.3307 2.9883 23.517 4.47819 23.9831C8.94784 25.3601 14.2569 24.7669 18.2439 22.4154C21.0767 20.7418 23.9096 17.4158 25.2316 14.1957C25.9451 12.4797 26.6586 9.3443 26.6586 7.84017C26.6586 6.86566 26.7215 6.73855 27.8966 5.57338C28.5891 4.89546 29.2396 4.15399 29.3655 3.94214C29.5754 3.53963 29.5544 3.53963 28.4842 3.89977C26.7005 4.53532 26.4487 4.45058 27.3301 3.49726C27.9806 2.81934 28.757 1.59061 28.757 1.23047C28.757 1.16691 28.4422 1.27284 28.0855 1.4635C27.7078 1.67535 26.8684 1.99313 26.2389 2.18379L25.1057 2.54394L24.0775 1.84483C23.5109 1.4635 22.7135 1.0398 22.2938 0.912694C21.2236 0.616105 19.5869 0.658475 18.6216 0.997434C15.9986 1.95076 14.3408 4.40821 14.5297 7.0987Z" fill="white"/>
</svg>
