<svg width="19" height="19" viewBox="0 0 19 19" fill="none" xmlns="http://www.w3.org/2000/svg">
<path fill-rule="evenodd" clip-rule="evenodd" d="M9.50152 0C12.0412 0 14.428 0.987392 16.2207 2.78096C19.9264 6.48655 19.9264 12.5152 16.2207 16.2208C14.4041 18.0382 11.9581 19 9.4803 19C8.12957 19 6.76999 18.7145 5.49792 18.1258C5.12311 17.9755 4.77217 17.834 4.52023 17.834C4.23028 17.8358 3.84044 17.9702 3.46386 18.1001C2.69125 18.3653 1.72947 18.6959 1.01786 17.987C0.308899 17.2771 0.635976 16.318 0.899405 15.5463C1.02935 15.1662 1.16283 14.7738 1.16283 14.4767C1.16283 14.2328 1.04526 13.9216 0.864929 13.4734C-0.790785 9.89778 -0.0252492 5.58844 2.78319 2.78185C4.57592 0.988276 6.96181 0 9.50152 0ZM9.5024 1.32595C7.31629 1.32595 5.26278 2.17633 3.72022 3.71974C1.30339 6.13474 0.6457 9.84298 2.08218 12.9484C2.28904 13.4602 2.48882 13.9587 2.48882 14.4767C2.48882 14.9939 2.31114 15.5145 2.15467 15.9742C2.02561 16.3525 1.83025 16.9236 1.95577 17.0491C2.07865 17.1764 2.65324 16.9757 3.03247 16.8458C3.48773 16.6902 4.00398 16.5116 4.51581 16.5081C5.02853 16.5081 5.51207 16.7026 6.0239 16.9085C9.15941 18.3582 12.8678 17.6988 15.2837 15.2838C18.4714 12.0944 18.4714 6.90644 15.2837 3.71885C13.7403 2.17544 11.6876 1.32595 9.5024 1.32595ZM12.9914 8.9835C13.4794 8.9835 13.8754 9.37863 13.8754 9.86747C13.8754 10.3563 13.4794 10.7514 12.9914 10.7514C12.5035 10.7514 12.1039 10.3563 12.1039 9.86747C12.1039 9.37863 12.4955 8.9835 12.9835 8.9835H12.9914ZM9.44768 8.9835C9.93565 8.9835 10.3317 9.37863 10.3317 9.86747C10.3317 10.3563 9.93565 10.7514 9.44768 10.7514C8.95972 10.7514 8.56016 10.3563 8.56016 9.86747C8.56016 9.37863 8.95088 8.9835 9.43973 8.9835H9.44768ZM5.90359 8.9835C6.39155 8.9835 6.78758 9.37863 6.78758 9.86747C6.78758 10.3563 6.39155 10.7514 5.90359 10.7514C5.41563 10.7514 5.01606 10.3563 5.01606 9.86747C5.01606 9.37863 5.40767 8.9835 5.89563 8.9835H5.90359Z" fill="#4F4F4F"/>
</svg>
